<svg xmlns="http://www.w3.org/2000/svg" viewBox="0 0 512 512" role="img" aria-label="Knitflix icon">
  <defs>
    <linearGradient id="bg" x1="0" y1="0" x2="1" y2="1">
      <stop offset="0" stop-color="#ff6fb1"/>
      <stop offset="1" stop-color="#7c66ff"/>
    </linearGradient>
    <filter id="soft" x="-20%" y="-20%" width="140%" height="140%">
      <feGaussianBlur stdDeviation="10" result="b"/>
      <feColorMatrix in="b" type="matrix"
        values="1 0 0 0 0
                0 1 0 0 0
                0 0 1 0 0
                0 0 0 .25 0" result="s"/>
      <feMerge>
        <feMergeNode in="s"/>
        <feMergeNode in="SourceGraphic"/>
      </feMerge>
    </filter>
  </defs>

  <rect x="32" y="32" width="448" height="448" rx="120" fill="url(#bg)"/>

  <!-- soft highlight -->
  <path d="M130 120c90-70 240-60 310 18 14 16 2 40-18 40H210c-34 0-66 12-92 34-20 17-49-1-49-28 0-25 22-49 61-64z"
        fill="#ffffff" opacity=".22"/>

  <!-- K -->
  <g filter="url(#soft)">
    <path d="M192 148h60v92l78-92h74l-98 114 104 140h-74l-74-104-10 12v92h-60V148z"
          fill="#ffffff"/>
  </g>

  <!-- tiny needle -->
  <g opacity=".85">
    <path d="M150 126l18-10 26 46-18 10z" fill="#ffffff"/>
    <circle cx="158" cy="121" r="8" fill="#ffffff"/>
  </g>
</svg>
